<?xml version="1.0" standalone="no"?><!DOCTYPE svg PUBLIC "-//W3C//DTD SVG 1.1//EN" "http://www.w3.org/Graphics/SVG/1.1/DTD/svg11.dtd"><svg class="icon" width="200px" height="200.00px" viewBox="0 0 1024 1024" version="1.1" xmlns="http://www.w3.org/2000/svg"><path fill="#30CB88" d="M669.815 400.389c0-12.458-10.1-22.559-22.559-22.559-12.458 0-22.559 10.1-22.559 22.559 0 0.003 0 0.007 0 0.009 0 62.285-50.492 112.776-112.776 112.776-62.285 0-112.776-50.492-112.776-112.776 0-0.004 0-0.007 0-0.010 0-12.458-10.1-22.558-22.559-22.558-12.458 0-22.559 10.1-22.559 22.559 0 0 0 0 0 0 0.008 87.192 70.691 157.872 157.884 157.872 87.193 0 157.877-70.681 157.884-157.872z"  /><path fill="#30CB88" d="M511.931 62.070c-186.603 0-338.318 151.785-338.318 338.318 0 148.902 99.779 281.214 240.614 323.8l-72.676 207.765c-0.811 2.228-1.281 4.803-1.281 7.486 0 9.77 6.223 18.086 14.92 21.202 2.387 0.85 4.96 1.313 7.642 1.314 9.763-0.006 18.109-6.277 21.204-15.030l80.897-231.014c0.816-2.222 1.286-4.789 1.286-7.463 0-4.020-1.064-7.791-2.927-11.047-3.337-5.903-9.252-10.153-16.216-11.219-131.733-29.077-228.366-149.421-228.366-285.791 0-161.698 131.538-293.218 293.218-293.218s293.218 131.556 293.218 293.218c-0.013 12.738-0.811 25.276-2.347 37.584-14.878 119.145-101.986 216.201-216.254 245.799-5.828 1.652-12.74 10.343-12.74 20.647 0 2.656 0.459 5.206 1.302 7.572l82.206 234.78c3.127 8.936 11.486 15.23 21.316 15.23 12.444 0 22.533-10.088 22.533-22.533 0-2.72-0.482-5.327-1.365-7.741l-74.471-212.899c132.209-47.888 224.971-172.363 224.971-318.505 0-0.002 0-0.004 0-0.006 0-186.568-151.75-338.318-338.318-338.318z"  /></svg>